<svg xmlns="http://www.w3.org/2000/svg" version="1.1" width="722" height="400"><defs></defs><rect x="0" y="0" width="722" height="400" rx="5" ry="5" fill="#FFFFFF" stroke="#4572A7" stroke-width="0.000001"></rect><g class="highcharts-series-group" ></g><path d="M 141.56442419354002 28.102723715205798 L 146.56442419354002 28.102723715205798 L 150.09212368228071 36.382538708135215 L 154.40375639074153 46.50231258838228" fill="none" stroke-width="1" stroke="#888" visibility="visible"  transform="translate(160,50)"></path><path d="M 255.43557580645995 271.8972762847942 L 250.43557580645995 271.8972762847942 L 246.90787631771926 263.6174612918648 L 242.59624360925844 253.49768741161773" fill="none" stroke-width="1" stroke="#888" visibility="visible"  transform="translate(160,50)"></path><g class="highcharts-point"  transform="translate(160,50)"><path d="M 198.5 37.5 A 112.5 112.5 0 1 1 117.36464674237165 72.06859136548438 L 198.5 150 A 0 0 0 1 0 198.5 150 Z" fill="#4572A7" stroke="#FFFFFF" stroke-width="1"></path></g><g class="highcharts-point"  transform="translate(160,50)"><path d="M 117.36472467382086 72.06851023017008 A 112.5 112.5 0 0 1 198.49988749999997 37.50000000005626 L 198.5 150 A 0 0 0 0 0 198.5 150 Z" fill="#AA4643" stroke="#FFFFFF" stroke-width="1"></path></g><g class="highcharts-highcharts-data-labels" visibility="visible"  transform="translate(160,50)"><text x="-999" y="-994" style="font-family:'lucida grande', 'lucida sans unicode', verdana, arial, helvetica, sans-serif;font-size:12px;color:undefined;font-size:10;" text-anchor="start"  visibility="visible"><tspan x="-999">127.255.255.255... (87%)</tspan></text><text x="-999" y="-994" style="font-family:'lucida grande', 'lucida sans unicode', verdana, arial, helvetica, sans-serif;font-size:12px;color:undefined;font-size:10;" text-anchor="end"  visibility="visible"><tspan x="-999">10.0.1.6... (13%)</tspan></text></g><g class="highcharts-tooltip"  visibility="hidden"><rect x="2" y="2" width="0" height="0" rx="5" ry="5" fill="none" fill-opacity="0.85" stroke-width="5"  stroke="rgb(0, 0, 0)" stroke-opacity="0.05" transform="translate(1,1)"></rect><rect x="2" y="2" width="0" height="0" rx="5" ry="5" fill="none" fill-opacity="0.85" stroke-width="3"  stroke="rgb(0, 0, 0)" stroke-opacity="0.1" transform="translate(1,1)"></rect><rect x="2" y="2" width="0" height="0" rx="5" ry="5" fill="none" fill-opacity="0.85" stroke-width="1"  stroke="rgb(0, 0, 0)" stroke-opacity="0.15000000000000002" transform="translate(1,1)"></rect><rect x="2" y="2" width="0" height="0" rx="5" ry="5" fill="rgb(255,255,255)" fill-opacity="0.85" stroke-width="2"></rect><text x="2" y="14" style="font-family:'lucida grande', 'lucida sans unicode', verdana, arial, helvetica, sans-serif;font-size:12px;color:#333333;font-size:12px;padding:0;white-space:nowrap;fill:#333333;" ><tspan x="2"> </tspan></text></g><text x="712" y="395" style="font-family:'lucida grande', 'lucida sans unicode', verdana, arial, helvetica, sans-serif;font-size:12px;cursor:pointer;color:#909090;font-size:10px;fill:#909090;" text-anchor="end" ><tspan x="712">Highcharts v2.1 Beta</tspan></text><g class="highcharts-tracker"  transform="translate(160,50)"><path d="M 198.5 37.5 A 112.5 112.5 0 1 1 117.36464674237165 72.06859136548438 L 198.5 150 A 0 0 0 1 0 198.5 150 Z" fill="rgb(192,192,192)"  fill-opacity="0.000001" visibility="visible"  style="cursor:pointer;"></path><path d="M 117.36472467382086 72.06851023017008 A 112.5 112.5 0 0 1 198.49988749999997 37.50000000005626 L 198.5 150 A 0 0 0 0 0 198.5 150 Z" fill="rgb(192,192,192)"  fill-opacity="0.000001" visibility="visible"  style="cursor:pointer;"></path></g></svg>