<svg xmlns="http://www.w3.org/2000/svg" version="1.1" width="722" height="400"><defs><clipPath id="highcharts-20"><rect x="0" y="0" width="562" height="300" fill="none"></rect></clipPath></defs><rect x="0" y="0" width="722" height="400" rx="5" ry="5" fill="#FFFFFF" stroke="#4572A7" stroke-width="0.000001"></rect><path d="M 80 300.5 L 642 300.5" fill="none" stroke="#808080" stroke-width="1"></path><text x="341" y="25" style="font-family:'lucida grande', 'lucida sans unicode', verdana, arial, helvetica, sans-serif;font-size:12px;color:#3e576f;font-size:16px;fill:#3e576f;" text-anchor="middle" class="highcharts-title" ><tspan x="341">Event Count vs Time By Sensor</tspan></text><g class="highcharts-grid" ></g><g class="highcharts-grid" ><path d="M 80 350.5 L 642 350.5" fill="none" stroke="#C0C0C0" stroke-width="1"></path><path d="M 80 300.5 L 642 300.5" fill="none" stroke="#C0C0C0" stroke-width="1"></path><path d="M 80 250.5 L 642 250.5" fill="none" stroke="#C0C0C0" stroke-width="1"></path><path d="M 80 200.5 L 642 200.5" fill="none" stroke="#C0C0C0" stroke-width="1"></path><path d="M 80 150.5 L 642 150.5" fill="none" stroke="#C0C0C0" stroke-width="1"></path><path d="M 80 100.5 L 642 100.5" fill="none" stroke="#C0C0C0" stroke-width="1"></path><path d="M 80 50.5 L 642 50.5" fill="none" stroke="#C0C0C0" stroke-width="1"></path></g><g class="highcharts-series-group" ><g class="highcharts-series" clip-path="url(#highcharts-20)" visibility="visible" transform="translate(80,50)"><path d="M 11.708333333333334 240 C 11.708333333333334 240 25.758333333333333 230 35.125 230 C 44.49166666666667 230 49.175 245 58.54166666666667 245 C 67.90833333333333 245 72.59166666666667 242 81.95833333333334 240 C 91.325 238 96.00833333333334 235 105.375 235 C 114.74166666666667 235 119.425 235 128.79166666666669 235 C 138.15833333333336 235 142.84166666666667 245 152.20833333333334 245 C 161.575 245 166.25833333333335 227.5 175.625 227.5 C 184.99166666666667 227.5 189.675 237.5 199.04166666666669 237.5 C 208.40833333333336 237.5 213.0916666666667 50 222.45833333333334 50 C 231.825 50 236.50833333333335 237.5 245.875 240 C 255.2416666666667 242.5 259.925 242.5 269.2916666666667 242.5 C 278.65833333333336 242.5 283.3416666666667 242.5 292.70833333333337 242.5 C 302.075 242.5 306.7583333333333 250 316.125 250 C 325.4916666666667 250 330.175 250 339.5416666666667 250 C 348.90833333333336 250 353.5916666666667 250 362.95833333333337 250 C 372.325 250 377.0083333333333 250 386.375 250 C 395.7416666666667 250 400.425 250 409.7916666666667 250 C 419.1583333333334 250 423.8416666666667 250 433.20833333333337 250 C 442.575 250 447.2583333333334 250 456.625 250 C 465.9916666666667 250 470.675 250 480.0416666666667 250 C 489.4083333333334 250 494.0916666666667 250 503.45833333333337 250 C 512.825 250 517.5083333333334 250 526.875 250 C 536.2416666666667 250 550.2916666666667 250 550.2916666666667 250" fill="none" stroke="rgb(0, 0, 0)" stroke-width="5"  stroke-opacity="0.05" transform="translate(1,1)"></path><path d="M 11.708333333333334 240 C 11.708333333333334 240 25.758333333333333 230 35.125 230 C 44.49166666666667 230 49.175 245 58.54166666666667 245 C 67.90833333333333 245 72.59166666666667 242 81.95833333333334 240 C 91.325 238 96.00833333333334 235 105.375 235 C 114.74166666666667 235 119.425 235 128.79166666666669 235 C 138.15833333333336 235 142.84166666666667 245 152.20833333333334 245 C 161.575 245 166.25833333333335 227.5 175.625 227.5 C 184.99166666666667 227.5 189.675 237.5 199.04166666666669 237.5 C 208.40833333333336 237.5 213.0916666666667 50 222.45833333333334 50 C 231.825 50 236.50833333333335 237.5 245.875 240 C 255.2416666666667 242.5 259.925 242.5 269.2916666666667 242.5 C 278.65833333333336 242.5 283.3416666666667 242.5 292.70833333333337 242.5 C 302.075 242.5 306.7583333333333 250 316.125 250 C 325.4916666666667 250 330.175 250 339.5416666666667 250 C 348.90833333333336 250 353.5916666666667 250 362.95833333333337 250 C 372.325 250 377.0083333333333 250 386.375 250 C 395.7416666666667 250 400.425 250 409.7916666666667 250 C 419.1583333333334 250 423.8416666666667 250 433.20833333333337 250 C 442.575 250 447.2583333333334 250 456.625 250 C 465.9916666666667 250 470.675 250 480.0416666666667 250 C 489.4083333333334 250 494.0916666666667 250 503.45833333333337 250 C 512.825 250 517.5083333333334 250 526.875 250 C 536.2416666666667 250 550.2916666666667 250 550.2916666666667 250" fill="none" stroke="rgb(0, 0, 0)" stroke-width="3"  stroke-opacity="0.1" transform="translate(1,1)"></path><path d="M 11.708333333333334 240 C 11.708333333333334 240 25.758333333333333 230 35.125 230 C 44.49166666666667 230 49.175 245 58.54166666666667 245 C 67.90833333333333 245 72.59166666666667 242 81.95833333333334 240 C 91.325 238 96.00833333333334 235 105.375 235 C 114.74166666666667 235 119.425 235 128.79166666666669 235 C 138.15833333333336 235 142.84166666666667 245 152.20833333333334 245 C 161.575 245 166.25833333333335 227.5 175.625 227.5 C 184.99166666666667 227.5 189.675 237.5 199.04166666666669 237.5 C 208.40833333333336 237.5 213.0916666666667 50 222.45833333333334 50 C 231.825 50 236.50833333333335 237.5 245.875 240 C 255.2416666666667 242.5 259.925 242.5 269.2916666666667 242.5 C 278.65833333333336 242.5 283.3416666666667 242.5 292.70833333333337 242.5 C 302.075 242.5 306.7583333333333 250 316.125 250 C 325.4916666666667 250 330.175 250 339.5416666666667 250 C 348.90833333333336 250 353.5916666666667 250 362.95833333333337 250 C 372.325 250 377.0083333333333 250 386.375 250 C 395.7416666666667 250 400.425 250 409.7916666666667 250 C 419.1583333333334 250 423.8416666666667 250 433.20833333333337 250 C 442.575 250 447.2583333333334 250 456.625 250 C 465.9916666666667 250 470.675 250 480.0416666666667 250 C 489.4083333333334 250 494.0916666666667 250 503.45833333333337 250 C 512.825 250 517.5083333333334 250 526.875 250 C 536.2416666666667 250 550.2916666666667 250 550.2916666666667 250" fill="none" stroke="rgb(0, 0, 0)" stroke-width="1"  stroke-opacity="0.15000000000000002" transform="translate(1,1)"></path><path d="M 11.708333333333334 240 C 11.708333333333334 240 25.758333333333333 230 35.125 230 C 44.49166666666667 230 49.175 245 58.54166666666667 245 C 67.90833333333333 245 72.59166666666667 242 81.95833333333334 240 C 91.325 238 96.00833333333334 235 105.375 235 C 114.74166666666667 235 119.425 235 128.79166666666669 235 C 138.15833333333336 235 142.84166666666667 245 152.20833333333334 245 C 161.575 245 166.25833333333335 227.5 175.625 227.5 C 184.99166666666667 227.5 189.675 237.5 199.04166666666669 237.5 C 208.40833333333336 237.5 213.0916666666667 50 222.45833333333334 50 C 231.825 50 236.50833333333335 237.5 245.875 240 C 255.2416666666667 242.5 259.925 242.5 269.2916666666667 242.5 C 278.65833333333336 242.5 283.3416666666667 242.5 292.70833333333337 242.5 C 302.075 242.5 306.7583333333333 250 316.125 250 C 325.4916666666667 250 330.175 250 339.5416666666667 250 C 348.90833333333336 250 353.5916666666667 250 362.95833333333337 250 C 372.325 250 377.0083333333333 250 386.375 250 C 395.7416666666667 250 400.425 250 409.7916666666667 250 C 419.1583333333334 250 423.8416666666667 250 433.20833333333337 250 C 442.575 250 447.2583333333334 250 456.625 250 C 465.9916666666667 250 470.675 250 480.0416666666667 250 C 489.4083333333334 250 494.0916666666667 250 503.45833333333337 250 C 512.825 250 517.5083333333334 250 526.875 250 C 536.2416666666667 250 550.2916666666667 250 550.2916666666667 250" fill="none" stroke="#4572A7" stroke-width="2"></path><circle cx="550.2916666666667" cy="250" r="4" stroke="#FFFFFF" stroke-width="0.000001" fill="#4572A7"></circle><circle cx="526.875" cy="250" r="4" stroke="#FFFFFF" stroke-width="0.000001" fill="#4572A7"></circle><circle cx="503.45833333333337" cy="250" r="4" stroke="#FFFFFF" stroke-width="0.000001" fill="#4572A7"></circle><circle cx="480.0416666666667" cy="250" r="4" stroke="#FFFFFF" stroke-width="0.000001" fill="#4572A7"></circle><circle cx="456.625" cy="250" r="4" stroke="#FFFFFF" stroke-width="0.000001" fill="#4572A7"></circle><circle cx="433.20833333333337" cy="250" r="4" stroke="#FFFFFF" stroke-width="0.000001" fill="#4572A7"></circle><circle cx="409.7916666666667" cy="250" r="4" stroke="#FFFFFF" stroke-width="0.000001" fill="#4572A7"></circle><circle cx="386.375" cy="250" r="4" stroke="#FFFFFF" stroke-width="0.000001" fill="#4572A7"></circle><circle cx="362.95833333333337" cy="250" r="4" stroke="#FFFFFF" stroke-width="0.000001" fill="#4572A7"></circle><circle cx="339.5416666666667" cy="250" r="4" stroke="#FFFFFF" stroke-width="0.000001" fill="#4572A7"></circle><circle cx="316.125" cy="250" r="4" stroke="#FFFFFF" stroke-width="0.000001" fill="#4572A7"></circle><circle cx="292.70833333333337" cy="242.5" r="4" stroke="#FFFFFF" stroke-width="0.000001" fill="#4572A7"></circle><circle cx="269.2916666666667" cy="242.5" r="4" stroke="#FFFFFF" stroke-width="0.000001" fill="#4572A7"></circle><circle cx="245.875" cy="240" r="4" stroke="#FFFFFF" stroke-width="0.000001" fill="#4572A7"></circle><circle cx="222.45833333333334" cy="50" r="4" stroke="#FFFFFF" stroke-width="0.000001" fill="#4572A7"></circle><circle cx="199.04166666666669" cy="237.5" r="4" stroke="#FFFFFF" stroke-width="0.000001" fill="#4572A7"></circle><circle cx="175.625" cy="227.5" r="4" stroke="#FFFFFF" stroke-width="0.000001" fill="#4572A7"></circle><circle cx="152.20833333333334" cy="245" r="4" stroke="#FFFFFF" stroke-width="0.000001" fill="#4572A7"></circle><circle cx="128.79166666666669" cy="235" r="4" stroke="#FFFFFF" stroke-width="0.000001" fill="#4572A7"></circle><circle cx="105.375" cy="235" r="4" stroke="#FFFFFF" stroke-width="0.000001" fill="#4572A7"></circle><circle cx="81.95833333333334" cy="240" r="4" stroke="#FFFFFF" stroke-width="0.000001" fill="#4572A7"></circle><circle cx="58.54166666666667" cy="245" r="4" stroke="#FFFFFF" stroke-width="0.000001" fill="#4572A7"></circle><circle cx="35.125" cy="230" r="4" stroke="#FFFFFF" stroke-width="0.000001" fill="#4572A7"></circle><circle cx="11.708333333333334" cy="240" r="4" stroke="#FFFFFF" stroke-width="0.000001" fill="#4572A7"></circle></g><g class="highcharts-series" clip-path="url(#highcharts-20)" visibility="visible" transform="translate(80,50)"><path d="M 11.708333333333334 250 C 11.708333333333334 250 25.758333333333333 250 35.125 250 C 44.49166666666667 250 49.175 250 58.54166666666667 250 C 67.90833333333333 250 72.59166666666667 250 81.95833333333334 250 C 91.325 250 96.00833333333334 230 105.375 230 C 114.74166666666667 230 119.425 237 128.79166666666669 240 C 138.15833333333336 243 142.84166666666667 245 152.20833333333334 245 C 161.575 245 166.25833333333335 240 175.625 240 C 184.99166666666667 240 189.675 250 199.04166666666669 250 C 208.40833333333336 250 213.0916666666667 250 222.45833333333334 250 C 231.825 250 236.50833333333335 250 245.875 250 C 255.2416666666667 250 259.925 250 269.2916666666667 250 C 278.65833333333336 250 283.3416666666667 245 292.70833333333337 245 C 302.075 245 306.7583333333333 250 316.125 250 C 325.4916666666667 250 330.175 250 339.5416666666667 250 C 348.90833333333336 250 353.5916666666667 250 362.95833333333337 250 C 372.325 250 377.0083333333333 250 386.375 250 C 395.7416666666667 250 400.425 250 409.7916666666667 250 C 419.1583333333334 250 423.8416666666667 250 433.20833333333337 250 C 442.575 250 447.2583333333334 250 456.625 250 C 465.9916666666667 250 470.675 250 480.0416666666667 250 C 489.4083333333334 250 494.0916666666667 250 503.45833333333337 250 C 512.825 250 517.5083333333334 250 526.875 250 C 536.2416666666667 250 550.2916666666667 250 550.2916666666667 250" fill="none" stroke="rgb(0, 0, 0)" stroke-width="5"  stroke-opacity="0.05" transform="translate(1,1)"></path><path d="M 11.708333333333334 250 C 11.708333333333334 250 25.758333333333333 250 35.125 250 C 44.49166666666667 250 49.175 250 58.54166666666667 250 C 67.90833333333333 250 72.59166666666667 250 81.95833333333334 250 C 91.325 250 96.00833333333334 230 105.375 230 C 114.74166666666667 230 119.425 237 128.79166666666669 240 C 138.15833333333336 243 142.84166666666667 245 152.20833333333334 245 C 161.575 245 166.25833333333335 240 175.625 240 C 184.99166666666667 240 189.675 250 199.04166666666669 250 C 208.40833333333336 250 213.0916666666667 250 222.45833333333334 250 C 231.825 250 236.50833333333335 250 245.875 250 C 255.2416666666667 250 259.925 250 269.2916666666667 250 C 278.65833333333336 250 283.3416666666667 245 292.70833333333337 245 C 302.075 245 306.7583333333333 250 316.125 250 C 325.4916666666667 250 330.175 250 339.5416666666667 250 C 348.90833333333336 250 353.5916666666667 250 362.95833333333337 250 C 372.325 250 377.0083333333333 250 386.375 250 C 395.7416666666667 250 400.425 250 409.7916666666667 250 C 419.1583333333334 250 423.8416666666667 250 433.20833333333337 250 C 442.575 250 447.2583333333334 250 456.625 250 C 465.9916666666667 250 470.675 250 480.0416666666667 250 C 489.4083333333334 250 494.0916666666667 250 503.45833333333337 250 C 512.825 250 517.5083333333334 250 526.875 250 C 536.2416666666667 250 550.2916666666667 250 550.2916666666667 250" fill="none" stroke="rgb(0, 0, 0)" stroke-width="3"  stroke-opacity="0.1" transform="translate(1,1)"></path><path d="M 11.708333333333334 250 C 11.708333333333334 250 25.758333333333333 250 35.125 250 C 44.49166666666667 250 49.175 250 58.54166666666667 250 C 67.90833333333333 250 72.59166666666667 250 81.95833333333334 250 C 91.325 250 96.00833333333334 230 105.375 230 C 114.74166666666667 230 119.425 237 128.79166666666669 240 C 138.15833333333336 243 142.84166666666667 245 152.20833333333334 245 C 161.575 245 166.25833333333335 240 175.625 240 C 184.99166666666667 240 189.675 250 199.04166666666669 250 C 208.40833333333336 250 213.0916666666667 250 222.45833333333334 250 C 231.825 250 236.50833333333335 250 245.875 250 C 255.2416666666667 250 259.925 250 269.2916666666667 250 C 278.65833333333336 250 283.3416666666667 245 292.70833333333337 245 C 302.075 245 306.7583333333333 250 316.125 250 C 325.4916666666667 250 330.175 250 339.5416666666667 250 C 348.90833333333336 250 353.5916666666667 250 362.95833333333337 250 C 372.325 250 377.0083333333333 250 386.375 250 C 395.7416666666667 250 400.425 250 409.7916666666667 250 C 419.1583333333334 250 423.8416666666667 250 433.20833333333337 250 C 442.575 250 447.2583333333334 250 456.625 250 C 465.9916666666667 250 470.675 250 480.0416666666667 250 C 489.4083333333334 250 494.0916666666667 250 503.45833333333337 250 C 512.825 250 517.5083333333334 250 526.875 250 C 536.2416666666667 250 550.2916666666667 250 550.2916666666667 250" fill="none" stroke="rgb(0, 0, 0)" stroke-width="1"  stroke-opacity="0.15000000000000002" transform="translate(1,1)"></path><path d="M 11.708333333333334 250 C 11.708333333333334 250 25.758333333333333 250 35.125 250 C 44.49166666666667 250 49.175 250 58.54166666666667 250 C 67.90833333333333 250 72.59166666666667 250 81.95833333333334 250 C 91.325 250 96.00833333333334 230 105.375 230 C 114.74166666666667 230 119.425 237 128.79166666666669 240 C 138.15833333333336 243 142.84166666666667 245 152.20833333333334 245 C 161.575 245 166.25833333333335 240 175.625 240 C 184.99166666666667 240 189.675 250 199.04166666666669 250 C 208.40833333333336 250 213.0916666666667 250 222.45833333333334 250 C 231.825 250 236.50833333333335 250 245.875 250 C 255.2416666666667 250 259.925 250 269.2916666666667 250 C 278.65833333333336 250 283.3416666666667 245 292.70833333333337 245 C 302.075 245 306.7583333333333 250 316.125 250 C 325.4916666666667 250 330.175 250 339.5416666666667 250 C 348.90833333333336 250 353.5916666666667 250 362.95833333333337 250 C 372.325 250 377.0083333333333 250 386.375 250 C 395.7416666666667 250 400.425 250 409.7916666666667 250 C 419.1583333333334 250 423.8416666666667 250 433.20833333333337 250 C 442.575 250 447.2583333333334 250 456.625 250 C 465.9916666666667 250 470.675 250 480.0416666666667 250 C 489.4083333333334 250 494.0916666666667 250 503.45833333333337 250 C 512.825 250 517.5083333333334 250 526.875 250 C 536.2416666666667 250 550.2916666666667 250 550.2916666666667 250" fill="none" stroke="#AA4643" stroke-width="2"></path><path d="M 550.2916666666667 246 L 554.2916666666667 250 550.2916666666667 254 546.2916666666667 250 Z" fill="#AA4643" stroke="#FFFFFF" stroke-width="0.000001"></path><path d="M 526.875 246 L 530.875 250 526.875 254 522.875 250 Z" fill="#AA4643" stroke="#FFFFFF" stroke-width="0.000001"></path><path d="M 503.45833333333337 246 L 507.45833333333337 250 503.45833333333337 254 499.45833333333337 250 Z" fill="#AA4643" stroke="#FFFFFF" stroke-width="0.000001"></path><path d="M 480.0416666666667 246 L 484.0416666666667 250 480.0416666666667 254 476.0416666666667 250 Z" fill="#AA4643" stroke="#FFFFFF" stroke-width="0.000001"></path><path d="M 456.625 246 L 460.625 250 456.625 254 452.625 250 Z" fill="#AA4643" stroke="#FFFFFF" stroke-width="0.000001"></path><path d="M 433.20833333333337 246 L 437.20833333333337 250 433.20833333333337 254 429.20833333333337 250 Z" fill="#AA4643" stroke="#FFFFFF" stroke-width="0.000001"></path><path d="M 409.7916666666667 246 L 413.7916666666667 250 409.7916666666667 254 405.7916666666667 250 Z" fill="#AA4643" stroke="#FFFFFF" stroke-width="0.000001"></path><path d="M 386.375 246 L 390.375 250 386.375 254 382.375 250 Z" fill="#AA4643" stroke="#FFFFFF" stroke-width="0.000001"></path><path d="M 362.95833333333337 246 L 366.95833333333337 250 362.95833333333337 254 358.95833333333337 250 Z" fill="#AA4643" stroke="#FFFFFF" stroke-width="0.000001"></path><path d="M 339.5416666666667 246 L 343.5416666666667 250 339.5416666666667 254 335.5416666666667 250 Z" fill="#AA4643" stroke="#FFFFFF" stroke-width="0.000001"></path><path d="M 316.125 246 L 320.125 250 316.125 254 312.125 250 Z" fill="#AA4643" stroke="#FFFFFF" stroke-width="0.000001"></path><path d="M 292.70833333333337 241 L 296.70833333333337 245 292.70833333333337 249 288.70833333333337 245 Z" fill="#AA4643" stroke="#FFFFFF" stroke-width="0.000001"></path><path d="M 269.2916666666667 246 L 273.2916666666667 250 269.2916666666667 254 265.2916666666667 250 Z" fill="#AA4643" stroke="#FFFFFF" stroke-width="0.000001"></path><path d="M 245.875 246 L 249.875 250 245.875 254 241.875 250 Z" fill="#AA4643" stroke="#FFFFFF" stroke-width="0.000001"></path><path d="M 222.45833333333334 246 L 226.45833333333334 250 222.45833333333334 254 218.45833333333334 250 Z" fill="#AA4643" stroke="#FFFFFF" stroke-width="0.000001"></path><path d="M 199.04166666666669 246 L 203.04166666666669 250 199.04166666666669 254 195.04166666666669 250 Z" fill="#AA4643" stroke="#FFFFFF" stroke-width="0.000001"></path><path d="M 175.625 236 L 179.625 240 175.625 244 171.625 240 Z" fill="#AA4643" stroke="#FFFFFF" stroke-width="0.000001"></path><path d="M 152.20833333333334 241 L 156.20833333333334 245 152.20833333333334 249 148.20833333333334 245 Z" fill="#AA4643" stroke="#FFFFFF" stroke-width="0.000001"></path><path d="M 128.79166666666669 236 L 132.79166666666669 240 128.79166666666669 244 124.79166666666669 240 Z" fill="#AA4643" stroke="#FFFFFF" stroke-width="0.000001"></path><path d="M 105.375 226 L 109.375 230 105.375 234 101.375 230 Z" fill="#AA4643" stroke="#FFFFFF" stroke-width="0.000001"></path><path d="M 81.95833333333334 246 L 85.95833333333334 250 81.95833333333334 254 77.95833333333334 250 Z" fill="#AA4643" stroke="#FFFFFF" stroke-width="0.000001"></path><path d="M 58.54166666666667 246 L 62.54166666666667 250 58.54166666666667 254 54.54166666666667 250 Z" fill="#AA4643" stroke="#FFFFFF" stroke-width="0.000001"></path><path d="M 35.125 246 L 39.125 250 35.125 254 31.125 250 Z" fill="#AA4643" stroke="#FFFFFF" stroke-width="0.000001"></path><path d="M 11.708333333333334 246 L 15.708333333333334 250 11.708333333333334 254 7.708333333333334 250 Z" fill="#AA4643" stroke="#FFFFFF" stroke-width="0.000001"></path></g></g><g class="highcharts-legend"  transform="translate(574,10)"><rect x="0" y="0" width="138" height="40" fill="#fff" stroke="#ddd" stroke-width="0.000001"></rect><text x="30" y="18" style="font-family:'lucida grande', 'lucida sans unicode', verdana, arial, helvetica, sans-serif;font-size:12px;cursor:pointer;color:#3e576f;fill:#3e576f;" ><tspan x="30">Snorby.org</tspan></text><path d="M -21 0 L -5 0" fill="none" stroke-width="2"  stroke="#4572A7" transform="translate(30,14)"></path><text x="30" y="33" style="font-family:'lucida grande', 'lucida sans unicode', verdana, arial, helvetica, sans-serif;font-size:12px;cursor:pointer;color:#3e576f;fill:#3e576f;" ><tspan x="30">Home Sensor</tspan></text><path d="M -21 0 L -5 0" fill="none" stroke-width="2"  stroke="#AA4643" transform="translate(30,29)"></path><circle cx="17" cy="14" r="4"  stroke="#4572A7" fill="#4572A7"></circle><path d="M 17 25 L 21 29 17 33 13 29 Z" fill="#AA4643"  stroke="#AA4643"></path></g><g class="highcharts-axis" ><text x="91.70833333333334" y="364" style="font-family:'lucida grande', 'lucida sans unicode', verdana, arial, helvetica, sans-serif;font-size:12px;color:#666;font-size:11px;fill:#666;" text-anchor="middle"><tspan x="91.70833333333334">0</tspan></text><text x="115.12500000000001" y="364" style="font-family:'lucida grande', 'lucida sans unicode', verdana, arial, helvetica, sans-serif;font-size:12px;color:#666;font-size:11px;fill:#666;" text-anchor="middle"><tspan x="115.12500000000001">1</tspan></text><text x="138.54166666666666" y="364" style="font-family:'lucida grande', 'lucida sans unicode', verdana, arial, helvetica, sans-serif;font-size:12px;color:#666;font-size:11px;fill:#666;" text-anchor="middle"><tspan x="138.54166666666666">2</tspan></text><text x="161.95833333333334" y="364" style="font-family:'lucida grande', 'lucida sans unicode', verdana, arial, helvetica, sans-serif;font-size:12px;color:#666;font-size:11px;fill:#666;" text-anchor="middle"><tspan x="161.95833333333334">3</tspan></text><text x="185.375" y="364" style="font-family:'lucida grande', 'lucida sans unicode', verdana, arial, helvetica, sans-serif;font-size:12px;color:#666;font-size:11px;fill:#666;" text-anchor="middle"><tspan x="185.375">4</tspan></text><text x="208.79166666666666" y="364" style="font-family:'lucida grande', 'lucida sans unicode', verdana, arial, helvetica, sans-serif;font-size:12px;color:#666;font-size:11px;fill:#666;" text-anchor="middle"><tspan x="208.79166666666666">5</tspan></text><text x="232.20833333333334" y="364" style="font-family:'lucida grande', 'lucida sans unicode', verdana, arial, helvetica, sans-serif;font-size:12px;color:#666;font-size:11px;fill:#666;" text-anchor="middle"><tspan x="232.20833333333334">6</tspan></text><text x="255.62500000000003" y="364" style="font-family:'lucida grande', 'lucida sans unicode', verdana, arial, helvetica, sans-serif;font-size:12px;color:#666;font-size:11px;fill:#666;" text-anchor="middle"><tspan x="255.62500000000003">7</tspan></text><text x="279.0416666666667" y="364" style="font-family:'lucida grande', 'lucida sans unicode', verdana, arial, helvetica, sans-serif;font-size:12px;color:#666;font-size:11px;fill:#666;" text-anchor="middle"><tspan x="279.0416666666667">8</tspan></text><text x="302.45833333333337" y="364" style="font-family:'lucida grande', 'lucida sans unicode', verdana, arial, helvetica, sans-serif;font-size:12px;color:#666;font-size:11px;fill:#666;" text-anchor="middle"><tspan x="302.45833333333337">9</tspan></text><text x="325.87500000000006" y="364" style="font-family:'lucida grande', 'lucida sans unicode', verdana, arial, helvetica, sans-serif;font-size:12px;color:#666;font-size:11px;fill:#666;" text-anchor="middle"><tspan x="325.87500000000006">10</tspan></text><text x="349.2916666666667" y="364" style="font-family:'lucida grande', 'lucida sans unicode', verdana, arial, helvetica, sans-serif;font-size:12px;color:#666;font-size:11px;fill:#666;" text-anchor="middle"><tspan x="349.2916666666667">11</tspan></text><text x="372.70833333333337" y="364" style="font-family:'lucida grande', 'lucida sans unicode', verdana, arial, helvetica, sans-serif;font-size:12px;color:#666;font-size:11px;fill:#666;" text-anchor="middle"><tspan x="372.70833333333337">12</tspan></text><text x="396.12500000000006" y="364" style="font-family:'lucida grande', 'lucida sans unicode', verdana, arial, helvetica, sans-serif;font-size:12px;color:#666;font-size:11px;fill:#666;" text-anchor="middle"><tspan x="396.12500000000006">13</tspan></text><text x="419.5416666666667" y="364" style="font-family:'lucida grande', 'lucida sans unicode', verdana, arial, helvetica, sans-serif;font-size:12px;color:#666;font-size:11px;fill:#666;" text-anchor="middle"><tspan x="419.5416666666667">14</tspan></text><text x="442.95833333333337" y="364" style="font-family:'lucida grande', 'lucida sans unicode', verdana, arial, helvetica, sans-serif;font-size:12px;color:#666;font-size:11px;fill:#666;" text-anchor="middle"><tspan x="442.95833333333337">15</tspan></text><text x="466.37500000000006" y="364" style="font-family:'lucida grande', 'lucida sans unicode', verdana, arial, helvetica, sans-serif;font-size:12px;color:#666;font-size:11px;fill:#666;" text-anchor="middle"><tspan x="466.37500000000006">16</tspan></text><text x="489.7916666666667" y="364" style="font-family:'lucida grande', 'lucida sans unicode', verdana, arial, helvetica, sans-serif;font-size:12px;color:#666;font-size:11px;fill:#666;" text-anchor="middle"><tspan x="489.7916666666667">17</tspan></text><text x="513.2083333333334" y="364" style="font-family:'lucida grande', 'lucida sans unicode', verdana, arial, helvetica, sans-serif;font-size:12px;color:#666;font-size:11px;fill:#666;" text-anchor="middle"><tspan x="513.2083333333334">18</tspan></text><text x="536.625" y="364" style="font-family:'lucida grande', 'lucida sans unicode', verdana, arial, helvetica, sans-serif;font-size:12px;color:#666;font-size:11px;fill:#666;" text-anchor="middle"><tspan x="536.625">19</tspan></text><text x="560.0416666666666" y="364" style="font-family:'lucida grande', 'lucida sans unicode', verdana, arial, helvetica, sans-serif;font-size:12px;color:#666;font-size:11px;fill:#666;" text-anchor="middle"><tspan x="560.0416666666666">20</tspan></text><text x="583.4583333333334" y="364" style="font-family:'lucida grande', 'lucida sans unicode', verdana, arial, helvetica, sans-serif;font-size:12px;color:#666;font-size:11px;fill:#666;" text-anchor="middle"><tspan x="583.4583333333334">21</tspan></text><text x="606.875" y="364" style="font-family:'lucida grande', 'lucida sans unicode', verdana, arial, helvetica, sans-serif;font-size:12px;color:#666;font-size:11px;fill:#666;" text-anchor="middle"><tspan x="606.875">22</tspan></text><text x="630.2916666666666" y="364" style="font-family:'lucida grande', 'lucida sans unicode', verdana, arial, helvetica, sans-serif;font-size:12px;color:#666;font-size:11px;fill:#666;" text-anchor="middle"><tspan x="630.2916666666666">23</tspan></text><path d="M 103.5 350 L 103.5 355" fill="none" stroke="#C0D0E0" stroke-width="1"></path><path d="M 127.5 350 L 127.5 355" fill="none" stroke="#C0D0E0" stroke-width="1"></path><path d="M 150.5 350 L 150.5 355" fill="none" stroke="#C0D0E0" stroke-width="1"></path><path d="M 174.5 350 L 174.5 355" fill="none" stroke="#C0D0E0" stroke-width="1"></path><path d="M 197.5 350 L 197.5 355" fill="none" stroke="#C0D0E0" stroke-width="1"></path><path d="M 221.5 350 L 221.5 355" fill="none" stroke="#C0D0E0" stroke-width="1"></path><path d="M 244.5 350 L 244.5 355" fill="none" stroke="#C0D0E0" stroke-width="1"></path><path d="M 267.5 350 L 267.5 355" fill="none" stroke="#C0D0E0" stroke-width="1"></path><path d="M 291.5 350 L 291.5 355" fill="none" stroke="#C0D0E0" stroke-width="1"></path><path d="M 314.5 350 L 314.5 355" fill="none" stroke="#C0D0E0" stroke-width="1"></path><path d="M 338.5 350 L 338.5 355" fill="none" stroke="#C0D0E0" stroke-width="1"></path><path d="M 361.5 350 L 361.5 355" fill="none" stroke="#C0D0E0" stroke-width="1"></path><path d="M 384.5 350 L 384.5 355" fill="none" stroke="#C0D0E0" stroke-width="1"></path><path d="M 408.5 350 L 408.5 355" fill="none" stroke="#C0D0E0" stroke-width="1"></path><path d="M 431.5 350 L 431.5 355" fill="none" stroke="#C0D0E0" stroke-width="1"></path><path d="M 455.5 350 L 455.5 355" fill="none" stroke="#C0D0E0" stroke-width="1"></path><path d="M 478.5 350 L 478.5 355" fill="none" stroke="#C0D0E0" stroke-width="1"></path><path d="M 502.5 350 L 502.5 355" fill="none" stroke="#C0D0E0" stroke-width="1"></path><path d="M 525.5 350 L 525.5 355" fill="none" stroke="#C0D0E0" stroke-width="1"></path><path d="M 548.5 350 L 548.5 355" fill="none" stroke="#C0D0E0" stroke-width="1"></path><path d="M 572.5 350 L 572.5 355" fill="none" stroke="#C0D0E0" stroke-width="1"></path><path d="M 595.5 350 L 595.5 355" fill="none" stroke="#C0D0E0" stroke-width="1"></path><path d="M 619.5 350 L 619.5 355" fill="none" stroke="#C0D0E0" stroke-width="1"></path><path d="M 642.5 350 L 642.5 355" fill="none" stroke="#C0D0E0" stroke-width="1"></path></g><text x="361" y="385" style="font-family:'lucida grande', 'lucida sans unicode', verdana, arial, helvetica, sans-serif;font-size:12px;color:#6d869f;font-weight:bold;fill:#6d869f;"  text-anchor="middle"><tspan x="361">Hour of Day</tspan></text><g class="highcharts-axis" ><text x="72" y="353" style="font-family:'lucida grande', 'lucida sans unicode', verdana, arial, helvetica, sans-serif;font-size:12px;color:#666;font-size:11px;fill:#666;" text-anchor="end"><tspan x="72">-20</tspan></text><text x="72" y="303" style="font-family:'lucida grande', 'lucida sans unicode', verdana, arial, helvetica, sans-serif;font-size:12px;color:#666;font-size:11px;fill:#666;" text-anchor="end"><tspan x="72">0</tspan></text><text x="72" y="253" style="font-family:'lucida grande', 'lucida sans unicode', verdana, arial, helvetica, sans-serif;font-size:12px;color:#666;font-size:11px;fill:#666;" text-anchor="end"><tspan x="72">20</tspan></text><text x="72" y="203" style="font-family:'lucida grande', 'lucida sans unicode', verdana, arial, helvetica, sans-serif;font-size:12px;color:#666;font-size:11px;fill:#666;" text-anchor="end"><tspan x="72">40</tspan></text><text x="72" y="153" style="font-family:'lucida grande', 'lucida sans unicode', verdana, arial, helvetica, sans-serif;font-size:12px;color:#666;font-size:11px;fill:#666;" text-anchor="end"><tspan x="72">60</tspan></text><text x="72" y="103" style="font-family:'lucida grande', 'lucida sans unicode', verdana, arial, helvetica, sans-serif;font-size:12px;color:#666;font-size:11px;fill:#666;" text-anchor="end"><tspan x="72">80</tspan></text><text x="72" y="53" style="font-family:'lucida grande', 'lucida sans unicode', verdana, arial, helvetica, sans-serif;font-size:12px;color:#666;font-size:11px;fill:#666;" text-anchor="end"><tspan x="72">100</tspan></text></g><text x="41" y="200" style="font-family:'lucida grande', 'lucida sans unicode', verdana, arial, helvetica, sans-serif;font-size:12px;color:#6d869f;font-weight:bold;fill:#6d869f;"  transform="rotate(270 41 200)" text-anchor="middle"><tspan x="41">Event Count</tspan></text><path d="M 80 350.5 L 642 350.5" fill="none" stroke="#C0D0E0" stroke-width="1" ></path><g class="highcharts-tooltip"  visibility="hidden"><rect x="2" y="2" width="0" height="0" rx="5" ry="5" fill="none" fill-opacity="0.85" stroke-width="5"  stroke="rgb(0, 0, 0)" stroke-opacity="0.05" transform="translate(1,1)"></rect><rect x="2" y="2" width="0" height="0" rx="5" ry="5" fill="none" fill-opacity="0.85" stroke-width="3"  stroke="rgb(0, 0, 0)" stroke-opacity="0.1" transform="translate(1,1)"></rect><rect x="2" y="2" width="0" height="0" rx="5" ry="5" fill="none" fill-opacity="0.85" stroke-width="1"  stroke="rgb(0, 0, 0)" stroke-opacity="0.15000000000000002" transform="translate(1,1)"></rect><rect x="2" y="2" width="0" height="0" rx="5" ry="5" fill="rgb(255,255,255)" fill-opacity="0.85" stroke-width="2"></rect><text x="2" y="14" style="font-family:'lucida grande', 'lucida sans unicode', verdana, arial, helvetica, sans-serif;font-size:12px;color:#333333;font-size:12px;padding:0;white-space:nowrap;fill:#333333;" ><tspan x="2"> </tspan></text></g><text x="712" y="395" style="font-family:'lucida grande', 'lucida sans unicode', verdana, arial, helvetica, sans-serif;font-size:12px;cursor:pointer;color:#909090;font-size:10px;fill:#909090;" text-anchor="end" ><tspan x="712">Highcharts v2.1 Beta</tspan></text><g class="highcharts-tracker"  transform="translate(80,50)"><path d="M 1.708333333333334 240 L 11.708333333333334 240 C 11.708333333333334 240 25.758333333333333 230 35.125 230 C 44.49166666666667 230 49.175 245 58.54166666666667 245 C 67.90833333333333 245 72.59166666666667 242 81.95833333333334 240 C 91.325 238 96.00833333333334 235 105.375 235 C 114.74166666666667 235 119.425 235 128.79166666666669 235 C 138.15833333333336 235 142.84166666666667 245 152.20833333333334 245 C 161.575 245 166.25833333333335 227.5 175.625 227.5 C 184.99166666666667 227.5 189.675 237.5 199.04166666666669 237.5 C 208.40833333333336 237.5 213.0916666666667 50 222.45833333333334 50 C 231.825 50 236.50833333333335 237.5 245.875 240 C 255.2416666666667 242.5 259.925 242.5 269.2916666666667 242.5 C 278.65833333333336 242.5 283.3416666666667 242.5 292.70833333333337 242.5 C 302.075 242.5 306.7583333333333 250 316.125 250 C 325.4916666666667 250 330.175 250 339.5416666666667 250 C 348.90833333333336 250 353.5916666666667 250 362.95833333333337 250 C 372.325 250 377.0083333333333 250 386.375 250 C 395.7416666666667 250 400.425 250 409.7916666666667 250 C 419.1583333333334 250 423.8416666666667 250 433.20833333333337 250 C 442.575 250 447.2583333333334 250 456.625 250 C 465.9916666666667 250 470.675 250 480.0416666666667 250 C 489.4083333333334 250 494.0916666666667 250 503.45833333333337 250 C 512.825 250 517.5083333333334 250 526.875 250 C 536.2416666666667 250 550.2916666666667 250 550.2916666666667 250 L 560.2916666666667 250" fill="none"  stroke-opacity="0.000001" stroke="rgb(192,192,192)" stroke-width="22" visibility="visible"  style=""></path><path d="M 1.708333333333334 250 L 11.708333333333334 250 C 11.708333333333334 250 25.758333333333333 250 35.125 250 C 44.49166666666667 250 49.175 250 58.54166666666667 250 C 67.90833333333333 250 72.59166666666667 250 81.95833333333334 250 C 91.325 250 96.00833333333334 230 105.375 230 C 114.74166666666667 230 119.425 237 128.79166666666669 240 C 138.15833333333336 243 142.84166666666667 245 152.20833333333334 245 C 161.575 245 166.25833333333335 240 175.625 240 C 184.99166666666667 240 189.675 250 199.04166666666669 250 C 208.40833333333336 250 213.0916666666667 250 222.45833333333334 250 C 231.825 250 236.50833333333335 250 245.875 250 C 255.2416666666667 250 259.925 250 269.2916666666667 250 C 278.65833333333336 250 283.3416666666667 245 292.70833333333337 245 C 302.075 245 306.7583333333333 250 316.125 250 C 325.4916666666667 250 330.175 250 339.5416666666667 250 C 348.90833333333336 250 353.5916666666667 250 362.95833333333337 250 C 372.325 250 377.0083333333333 250 386.375 250 C 395.7416666666667 250 400.425 250 409.7916666666667 250 C 419.1583333333334 250 423.8416666666667 250 433.20833333333337 250 C 442.575 250 447.2583333333334 250 456.625 250 C 465.9916666666667 250 470.675 250 480.0416666666667 250 C 489.4083333333334 250 494.0916666666667 250 503.45833333333337 250 C 512.825 250 517.5083333333334 250 526.875 250 C 536.2416666666667 250 550.2916666666667 250 550.2916666666667 250 L 560.2916666666667 250" fill="none"  stroke-opacity="0.000001" stroke="rgb(192,192,192)" stroke-width="22" visibility="visible"  style=""></path></g></svg>